<svg width="497" height="88" viewBox="0 0 497 88" fill="none" xmlns="http://www.w3.org/2000/svg">
<rect x="103.171" width="84.8409" height="87.9831" rx="34" fill="#625D5D"/>
<rect x="103" width="85" height="79" rx="34" fill="#D7D7D7"/>
<rect width="85.3646" height="87.9831" rx="34" fill="#625D5D"/>
<rect width="85.3646" height="79" rx="34" fill="#D7D7D7"/>
<path d="M42.6451 46.186C41.3651 46.186 40.1411 45.994 38.9731 45.61C37.8051 45.21 36.8851 44.698 36.2131 44.074L37.1011 42.202C37.7411 42.762 38.5571 43.226 39.5491 43.594C40.5411 43.962 41.5731 44.146 42.6451 44.146C43.6211 44.146 44.4131 44.034 45.0211 43.81C45.6291 43.586 46.0771 43.282 46.3651 42.898C46.6531 42.498 46.7971 42.05 46.7971 41.554C46.7971 40.978 46.6051 40.514 46.2211 40.162C45.8531 39.81 45.3651 39.53 44.7571 39.322C44.1651 39.098 43.5091 38.906 42.7891 38.746C42.0691 38.586 41.3411 38.402 40.6051 38.194C39.8851 37.97 39.2211 37.69 38.6131 37.354C38.0211 37.018 37.5411 36.57 37.1731 36.01C36.8051 35.434 36.6211 34.698 36.6211 33.802C36.6211 32.938 36.8451 32.146 37.2931 31.426C37.7571 30.69 38.4611 30.106 39.4051 29.674C40.3651 29.226 41.5811 29.002 43.0531 29.002C44.0291 29.002 44.9971 29.13 45.9571 29.386C46.9171 29.642 47.7491 30.01 48.4531 30.49L47.6611 32.41C46.9411 31.93 46.1811 31.586 45.3811 31.378C44.5811 31.154 43.8051 31.042 43.0531 31.042C42.1091 31.042 41.3331 31.162 40.7251 31.402C40.1171 31.642 39.6691 31.962 39.3811 32.362C39.1091 32.762 38.9731 33.21 38.9731 33.706C38.9731 34.298 39.1571 34.77 39.5251 35.122C39.9091 35.474 40.3971 35.754 40.9891 35.962C41.5971 36.17 42.2611 36.362 42.9811 36.538C43.7011 36.698 44.4211 36.882 45.1411 37.09C45.8771 37.298 46.5411 37.57 47.1331 37.906C47.7411 38.242 48.2291 38.69 48.5971 39.25C48.9651 39.81 49.1491 40.53 49.1491 41.41C49.1491 42.258 48.9171 43.05 48.4531 43.786C47.9891 44.506 47.2691 45.09 46.2931 45.538C45.3331 45.97 44.1171 46.186 42.6451 46.186Z" fill="black"/>
<path d="M147.213 50.095C145.933 50.095 144.749 49.887 143.661 49.471C142.589 49.039 141.653 48.439 140.853 47.671C140.069 46.887 139.453 45.975 139.005 44.935C138.557 43.895 138.333 42.751 138.333 41.503C138.333 40.255 138.557 39.111 139.005 38.071C139.453 37.031 140.077 36.127 140.877 35.359C141.677 34.575 142.613 33.975 143.685 33.559C144.773 33.127 145.957 32.911 147.237 32.911C148.533 32.911 149.725 33.135 150.813 33.583C151.917 34.015 152.853 34.663 153.621 35.527L152.061 37.039C151.421 36.367 150.701 35.871 149.901 35.551C149.101 35.215 148.245 35.047 147.333 35.047C146.389 35.047 145.509 35.207 144.693 35.527C143.893 35.847 143.197 36.295 142.605 36.871C142.013 37.447 141.549 38.135 141.213 38.935C140.893 39.719 140.733 40.575 140.733 41.503C140.733 42.431 140.893 43.295 141.213 44.095C141.549 44.879 142.013 45.559 142.605 46.135C143.197 46.711 143.893 47.159 144.693 47.479C145.509 47.799 146.389 47.959 147.333 47.959C148.245 47.959 149.101 47.799 149.901 47.479C150.701 47.143 151.421 46.631 152.061 45.943L153.621 47.455C152.853 48.319 151.917 48.975 150.813 49.423C149.725 49.871 148.525 50.095 147.213 50.095Z" fill="black"/>
<rect x="205.818" width="85.3646" height="87.9831" rx="34" fill="#625D5D"/>
<rect x="206" width="85" height="79" rx="34" fill="#D7D7D7"/>
<path d="M248.488 50.095C246.28 50.095 244.544 49.463 243.28 48.199C242.016 46.935 241.384 45.087 241.384 42.655V33.103H243.784V42.559C243.784 44.431 244.192 45.799 245.008 46.663C245.84 47.527 247.008 47.959 248.512 47.959C250.032 47.959 251.2 47.527 252.016 46.663C252.848 45.799 253.264 44.431 253.264 42.559V33.103H255.592V42.655C255.592 45.087 254.96 46.935 253.696 48.199C252.448 49.463 250.712 50.095 248.488 50.095Z" fill="black"/>
<rect x="308.988" width="84.8409" height="87.9831" rx="34" fill="#625D5D"/>
<rect x="309" width="85" height="79" rx="34" fill="#D7D7D7"/>
<path d="M348.733 41.047H357.397V43.111H348.733V41.047ZM348.973 49.903H346.573V33.103H358.429V35.191H348.973V49.903Z" fill="black"/>
<rect x="411.635" width="85.3646" height="87.9831" rx="34" fill="#625D5D"/>
<rect x="412" width="85" height="79" rx="34" fill="#D7D7D7"/>
<path d="M451.38 41.047H460.044V43.111H451.38V41.047ZM451.62 49.903H449.22V33.103H461.076V35.191H451.62V49.903Z" fill="black"/>
</svg>
